<svg width="220" height="62" viewBox="0 0 220 62" fill="none" xmlns="http://www.w3.org/2000/svg">
<path d="M96.6492 4.64507C95.4371 9.08472 93.922 13.2182 92.1039 17.5047C90.4373 13.2182 89.0738 8.77853 88.0132 4.64507C85.8921 4.1858 83.3164 4.1858 81.1953 4.64507C82.8619 10.4625 85.286 17.0455 88.0132 22.7098C88.6192 22.8629 89.2253 22.8629 89.8313 23.016C88.7707 25.3124 87.5587 27.6088 86.0436 29.9051C88.3162 30.3644 90.8919 30.3644 93.1645 29.9051C96.9522 22.4037 100.891 12.6058 103.467 4.64507C101.194 4.1858 98.7703 4.1858 96.6492 4.64507Z" fill="white"/>
<path d="M131.799 29.9051C131.647 21.7913 130.89 12.6058 129.829 4.64506C127.86 4.0327 125.436 4.0327 123.466 4.64506C121.345 8.93161 119.527 13.8305 118.163 18.7295C116.648 13.8305 114.83 8.77852 112.557 4.64506C110.436 4.0327 108.164 4.0327 106.042 4.64506C104.982 12.6058 104.376 21.7913 104.073 29.9051C106.042 30.3644 108.315 30.3644 110.436 29.9051C110.588 25.0062 110.739 19.9542 111.194 15.5145C112.709 18.7295 114.375 22.7098 115.436 26.384C117.103 26.9964 118.921 26.9964 120.436 26.384C121.496 22.7098 123.011 18.8825 124.527 15.6676C124.981 20.4135 125.284 25.4655 125.284 30.0582C127.557 30.5175 129.829 30.5174 131.799 29.9051Z" fill="white"/>
<path d="M145.586 10.3094C146.95 10.3094 148.162 10.9218 148.768 12.1465C150.586 11.3811 151.95 9.69709 152.404 7.85998C151.04 5.56361 148.465 4.18579 145.283 4.18579C138.768 4.18579 134.526 9.39089 134.526 17.6578C134.526 26.0778 138.617 30.6706 145.889 30.6706C148.465 30.6706 150.737 30.0582 152.556 29.1396C152.707 26.9964 152.253 24.8531 151.04 23.4753C149.98 24.0876 148.465 24.3938 146.647 24.3938C142.859 24.3938 141.041 21.9444 141.041 17.1985C141.192 12.4527 142.708 10.3094 145.586 10.3094Z" fill="white"/>
<path d="M161.949 24.3938C163.313 23.1691 164.676 21.6382 165.737 20.2604C167.403 23.3222 168.918 26.6902 169.979 29.9051C172.252 30.5175 174.827 30.5175 177.1 29.9051C175.282 25.1593 172.706 20.2604 169.828 15.9738C172.403 12.4527 174.373 8.47234 175.736 4.64506C173.767 4.0327 171.04 4.0327 169.07 4.64506C167.403 9.08471 164.828 13.3713 161.949 16.7393V4.64506C159.828 4.0327 157.555 4.0327 155.434 4.64506V29.9051C157.555 30.5175 159.828 30.5175 161.949 29.9051V24.3938Z" fill="white"/>
<path d="M182.251 29.9051C184.524 30.3644 187.099 30.3644 189.372 29.9051C193.16 22.4037 197.099 12.6058 199.675 4.64507C197.554 4.1858 195.129 4.1858 193.008 4.64507C191.796 9.08472 190.281 13.2182 188.463 17.5047C186.796 13.2182 185.433 8.77853 184.372 4.64507C182.251 4.1858 179.676 4.1858 177.554 4.64507C179.221 10.4625 181.645 17.0455 184.372 22.7098C184.978 22.8629 185.584 22.8629 186.19 23.016C184.978 25.3124 183.766 27.4557 182.251 29.9051Z" fill="white"/>
<path d="M213.007 10.3094V29.9051C215.129 30.3644 217.401 30.3644 219.522 29.9051V4.49197H202.856L201.038 21.332C200.735 23.6284 200.129 24.5469 198.463 24.5469C197.857 24.5469 197.251 24.3938 196.796 24.2407C195.887 25.4655 195.432 27.4557 195.432 29.4458C196.645 30.0582 198.311 30.5175 199.675 30.5175C204.371 30.5175 206.644 28.068 207.402 22.0975L208.765 10.3094H213.007Z" fill="white"/>
<path d="M85.5891 36.6411C84.074 36.6411 83.3164 37.7128 83.3164 39.5499C83.3164 41.387 84.074 42.4586 85.5891 42.4586C87.1041 42.4586 87.8617 41.387 87.8617 39.5499C87.8617 37.5597 86.9526 36.6411 85.5891 36.6411ZM85.5891 41.387C84.68 41.387 84.377 40.7746 84.377 39.5499C84.377 38.1721 84.8315 37.7128 85.5891 37.7128C86.4981 37.7128 86.8011 38.3251 86.8011 39.5499C86.8011 40.7746 86.3466 41.387 85.5891 41.387Z" fill="white"/>
<path d="M115.284 39.5498C115.133 39.856 115.133 40.1622 115.284 40.4684H117.254C117.406 40.1622 117.406 39.856 117.254 39.5498H115.284Z" fill="white"/>
<path d="M209.068 41.2339V39.856H211.189C211.341 39.5499 211.341 39.2437 211.189 38.9375H209.068V37.5597H211.492C211.644 37.2535 211.644 36.9473 211.492 36.6411H208.159V42.1524H211.644C211.795 41.8462 211.795 41.54 211.644 41.2339H209.068Z" fill="white"/>
<path d="M212.401 36.6411V42.1524C212.704 42.3055 213.159 42.3055 213.462 42.1524V37.7128H215.432C215.583 37.4066 215.583 37.1004 215.432 36.6411H212.401Z" fill="white"/>
<path d="M217.553 36.6411C216.947 36.6411 216.341 36.9473 215.886 37.4066C215.886 37.7128 216.189 38.019 216.341 38.019C216.644 37.7128 216.947 37.5597 217.401 37.5597C218.159 37.5597 218.613 38.0189 218.765 39.0906H216.795C216.644 39.3968 216.644 39.703 216.795 40.0091H218.765C218.613 40.9277 218.159 41.387 217.25 41.387C216.947 41.387 216.492 41.2339 216.189 41.0808C216.038 41.2339 215.886 41.6931 215.886 41.9993C216.341 42.1524 216.795 42.3055 217.401 42.3055C218.916 42.3055 219.825 41.2339 219.825 39.5499C219.825 37.7128 219.068 36.6411 217.553 36.6411Z" fill="white"/>
<path d="M91.8009 36.7942V38.9375H89.8313V36.7942C89.5283 36.6411 89.0738 36.6411 88.7707 36.7942V42.3055C89.0738 42.4586 89.5283 42.4586 89.8313 42.3055V40.0091H91.8009V42.3055C92.1039 42.4586 92.5584 42.4586 92.8615 42.3055V36.7942C92.5584 36.6411 92.2554 36.6411 91.8009 36.7942Z" fill="white"/>
<path d="M95.2856 36.6411L94.8311 40.4684C94.8311 41.0808 94.5281 41.387 94.225 41.387C94.0735 41.387 93.922 41.387 93.922 41.387C93.7705 41.5401 93.619 41.8462 93.7705 42.3055C94.0735 42.4586 94.225 42.4586 94.5281 42.4586C95.4371 42.4586 95.8916 41.9993 96.0431 40.7746L96.3461 37.8659H97.7097V42.4586C98.0127 42.6117 98.4673 42.6117 98.7703 42.4586V36.9473H95.2856V36.6411Z" fill="white"/>
<path d="M101.043 36.7942C100.285 38.4782 99.6793 40.3153 99.2248 42.3055C99.5278 42.4586 99.9822 42.4586 100.285 42.3055C100.437 41.9993 100.437 41.54 100.588 41.2339H102.861C103.012 41.54 103.012 41.9993 103.164 42.3055C103.467 42.4586 103.921 42.4586 104.224 42.3055C103.77 40.4684 103.164 38.6313 102.406 36.7942C101.952 36.6411 101.497 36.6411 101.043 36.7942ZM100.891 40.3153C101.194 39.3968 101.497 38.4782 101.8 37.7128C102.103 38.4782 102.406 39.3968 102.709 40.3153H100.891Z" fill="white"/>
<path d="M108.012 35.2633C107.861 35.2633 107.558 35.2633 107.406 35.2633C107.406 35.4164 107.255 35.5695 107.103 35.5695C106.952 35.5695 106.8 35.4164 106.8 35.2633C106.649 35.2633 106.346 35.2633 106.194 35.2633C106.194 35.8757 106.649 36.1819 107.255 36.1819C107.558 36.1819 107.861 35.8757 108.012 35.2633Z" fill="white"/>
<path d="M107.861 36.7942C107.103 37.8659 106.346 39.2437 105.891 40.4684C105.891 40.3153 105.891 40.0091 105.891 39.856V36.7942C105.588 36.6411 105.133 36.6411 104.83 36.7942V42.3055C105.133 42.4586 105.588 42.4586 105.891 42.3055C106.497 41.0808 107.255 39.703 107.861 38.6313C107.861 38.9375 107.861 39.0906 107.861 39.2437V42.3055C108.164 42.4586 108.618 42.4586 108.921 42.3055V36.7942C108.618 36.6411 108.315 36.6411 107.861 36.7942Z" fill="white"/>
<path d="M113.163 36.7942V38.9375H111.194V36.7942C110.891 36.6411 110.436 36.6411 110.133 36.7942V42.3055C110.436 42.4586 110.891 42.4586 111.194 42.3055V40.0091H113.163V42.3055C113.466 42.4586 113.921 42.4586 114.224 42.3055V36.7942C113.921 36.6411 113.466 36.6411 113.163 36.7942Z" fill="white"/>
<path d="M124.072 36.7942V41.3869H122.254V36.7942C121.951 36.6411 121.496 36.6411 121.193 36.7942V41.3869H119.375V36.7942C119.072 36.6411 118.618 36.6411 118.315 36.7942V42.3055H125.133V36.7942C124.678 36.6411 124.375 36.6411 124.072 36.7942Z" fill="white"/>
<path d="M130.284 36.7942C129.981 36.6411 129.526 36.6411 129.223 36.7942C128.769 37.8659 128.163 38.9375 127.254 39.703V36.7942C126.951 36.6411 126.496 36.6411 126.193 36.7942V42.3055C126.496 42.4586 126.951 42.4586 127.254 42.3055V40.9277C127.557 40.6215 127.86 40.3153 128.163 40.0091C128.617 40.7746 129.072 41.54 129.375 42.3055C129.678 42.4586 130.132 42.4586 130.587 42.3055C130.132 41.2339 129.526 40.1622 128.92 39.2437C129.375 38.4782 129.981 37.5597 130.284 36.7942Z" fill="white"/>
<path d="M133.011 36.6411C131.496 36.6411 130.738 37.7128 130.738 39.5499C130.738 41.387 131.496 42.4586 133.011 42.4586C134.526 42.4586 135.284 41.387 135.284 39.5499C135.284 37.5597 134.526 36.6411 133.011 36.6411ZM133.011 41.387C132.102 41.387 131.799 40.7746 131.799 39.5499C131.799 38.1721 132.253 37.7128 133.011 37.7128C133.92 37.7128 134.223 38.3251 134.223 39.5499C134.223 40.7746 133.92 41.387 133.011 41.387Z" fill="white"/>
<path d="M137.102 36.6411L136.647 40.4684C136.647 41.0808 136.344 41.387 136.041 41.387C135.89 41.387 135.738 41.387 135.738 41.387C135.587 41.5401 135.435 41.8462 135.587 42.3055C135.89 42.4586 136.041 42.4586 136.344 42.4586C137.253 42.4586 137.708 41.9993 137.859 40.7746L138.162 37.8659H139.526V42.4586C139.829 42.6117 140.283 42.6117 140.586 42.4586V36.9473H137.102V36.6411Z" fill="white"/>
<path d="M143.011 36.7942C142.253 38.4782 141.647 40.3153 141.192 42.3055C141.495 42.4586 141.95 42.4586 142.253 42.3055C142.405 41.9993 142.405 41.54 142.556 41.2339H144.829C144.98 41.54 144.98 41.9993 145.132 42.3055C145.435 42.4586 145.889 42.4586 146.192 42.3055C145.738 40.4684 145.132 38.6313 144.374 36.7942C143.92 36.6411 143.465 36.6411 143.011 36.7942ZM142.708 40.3153C143.011 39.3968 143.314 38.4782 143.617 37.7128C143.92 38.4782 144.223 39.3968 144.526 40.3153H142.708Z" fill="white"/>
<path d="M149.222 36.6411V42.1524C149.525 42.3055 149.98 42.3055 150.283 42.1524V37.5597H152.253V42.1524C152.556 42.3055 153.01 42.3055 153.313 42.1524V36.6411H149.222Z" fill="white"/>
<path d="M156.495 36.6411C154.98 36.6411 154.222 37.7128 154.222 39.5499C154.222 41.387 154.98 42.4586 156.495 42.4586C158.01 42.4586 158.767 41.387 158.767 39.5499C158.767 37.5597 158.01 36.6411 156.495 36.6411ZM156.495 41.387C155.586 41.387 155.283 40.7746 155.283 39.5499C155.283 38.1721 155.737 37.7128 156.495 37.7128C157.404 37.7128 157.707 38.3251 157.707 39.5499C157.707 40.7746 157.252 41.387 156.495 41.387Z" fill="white"/>
<path d="M163.767 36.6411H160.434L160.131 39.703C160.131 40.3153 159.828 40.9277 159.525 41.2339H158.919V43.071C159.222 43.2241 159.525 43.2241 159.828 43.071V42.1524H163.464V43.071C163.767 43.2241 164.07 43.2241 164.373 43.071V41.2339H163.616V36.6411H163.767ZM162.858 41.2339H160.737C161.04 40.7746 161.192 40.3153 161.192 39.703L161.495 37.7128H162.858V41.2339Z" fill="white"/>
<path d="M165.282 36.6411V42.1524C165.585 42.3055 166.04 42.3055 166.343 42.1524V37.7128H168.312C168.464 37.4066 168.464 37.1004 168.312 36.6411H165.282Z" fill="white"/>
<path d="M170.888 36.6411C169.373 36.6411 168.615 37.7128 168.615 39.5499C168.615 41.387 169.373 42.4586 170.888 42.4586C172.403 42.4586 173.161 41.387 173.161 39.5499C173.161 37.5597 172.403 36.6411 170.888 36.6411ZM170.888 41.387C169.979 41.387 169.676 40.7746 169.676 39.5499C169.676 38.1721 170.131 37.7128 170.888 37.7128C171.797 37.7128 172.1 38.3251 172.1 39.5499C172.1 40.7746 171.797 41.387 170.888 41.387Z" fill="white"/>
<path d="M173.615 36.6411C173.464 36.9473 173.464 37.4066 173.615 37.7128H175.13V42.1524C175.433 42.3055 175.888 42.3055 176.191 42.1524V37.7128H177.706C177.857 37.4066 177.857 36.9473 177.706 36.6411H173.615Z" fill="white"/>
<path d="M180.282 36.6411C178.767 36.6411 178.009 37.7128 178.009 39.5499C178.009 41.387 178.767 42.4586 180.282 42.4586C181.797 42.4586 182.554 41.387 182.554 39.5499C182.554 37.5597 181.797 36.6411 180.282 36.6411ZM180.282 41.387C179.373 41.387 179.07 40.7746 179.07 39.5499C179.07 38.1721 179.524 37.7128 180.282 37.7128C181.191 37.7128 181.494 38.3251 181.494 39.5499C181.494 40.7746 181.039 41.387 180.282 41.387Z" fill="white"/>
<path d="M186.342 39.3968C186.796 39.2437 187.099 38.7844 187.099 38.172C187.099 37.2535 186.342 36.6411 185.281 36.6411C184.675 36.6411 184.069 36.7942 183.615 36.9473V41.9993C184.069 42.1524 184.675 42.3055 185.13 42.3055C186.493 42.3055 187.402 41.6931 187.402 40.6215C187.251 40.0091 186.796 39.5499 186.342 39.3968ZM184.524 37.7128C184.675 37.5597 184.978 37.5597 185.281 37.5597C185.887 37.5597 186.19 37.8659 186.19 38.3251C186.19 38.7844 185.887 39.0906 185.281 39.0906H184.675V37.7128H184.524ZM185.13 41.387C184.827 41.387 184.675 41.387 184.524 41.387V39.856H185.13C185.736 39.856 186.19 40.1622 186.19 40.6215C186.19 41.0808 185.736 41.387 185.13 41.387Z" fill="white"/>
<path d="M192.099 36.7942C191.796 36.6411 191.342 36.6411 191.039 36.7942C190.584 37.8659 189.978 38.9375 189.069 39.703V36.7942C188.766 36.6411 188.312 36.6411 188.009 36.7942V42.3055C188.312 42.4586 188.766 42.4586 189.069 42.3055V40.9277C189.372 40.6215 189.675 40.3153 189.978 40.0091C190.433 40.7746 190.887 41.54 191.19 42.3055C191.493 42.4586 191.948 42.4586 192.402 42.3055C191.948 41.2339 191.342 40.1622 190.736 39.2437C191.342 38.4782 191.796 37.5597 192.099 36.7942Z" fill="white"/>
<path d="M196.19 36.7942C195.432 37.8659 194.675 39.2437 194.22 40.4684C194.22 40.3153 194.22 40.0091 194.22 39.856V36.7942C193.917 36.6411 193.463 36.6411 193.16 36.7942V42.3055C193.463 42.4586 193.917 42.4586 194.22 42.3055C194.826 41.0808 195.584 39.703 196.19 38.6313C196.19 38.9375 196.19 39.0906 196.19 39.2437V42.3055C196.493 42.4586 196.948 42.4586 197.251 42.3055V36.7942C196.796 36.6411 196.493 36.6411 196.19 36.7942Z" fill="white"/>
<path d="M204.674 36.7942C204.371 36.6411 203.917 36.6411 203.614 36.7942C203.159 37.8659 202.553 38.9375 201.644 39.703V36.7942C201.341 36.6411 200.887 36.6411 200.584 36.7942V42.3055C200.887 42.4586 201.341 42.4586 201.644 42.3055V40.9277C201.947 40.6215 202.25 40.3153 202.553 40.0091C203.008 40.7746 203.462 41.54 203.765 42.3055C204.068 42.4586 204.523 42.4586 204.977 42.3055C204.523 41.2339 203.917 40.1622 203.311 39.2437C203.917 38.4782 204.371 37.5597 204.674 36.7942Z" fill="white"/>
<path d="M4.01277 46.8858C9.42535 46.9799 13.3448 47.3563 19.3173 50.273C24.9165 53.0015 29.5826 56.9531 32.1022 59.9639L33.502 61.6575L34.9018 59.9639C37.4215 56.9531 41.9942 53.0956 47.6867 50.273C54.2191 47.074 58.7918 46.5095 64.8577 46.7917C67.8439 46.8858 69.0571 46.5095 68.9638 43.875C59.9117 43.875 54.4058 43.4987 45.727 47.7326C40.6877 50.1789 36.395 53.4719 33.502 56.3886C30.6091 53.4719 26.3163 50.1789 21.277 47.7326C13.3448 43.875 8.39884 43.781 0 43.9691C0 47.074 1.77308 46.7917 4.01277 46.8858Z" fill="#F19137"/>
<path d="M30.2367 49.7084C31.1699 50.4611 32.0098 51.3079 32.8497 52.1547C33.0363 52.3428 33.223 52.531 33.4096 52.7192C33.5963 52.531 33.8762 52.2487 34.0629 52.0606C34.9027 51.2138 35.7426 50.4611 36.6758 49.7084C39.1022 47.6385 41.9018 45.9449 44.9813 44.5336C50.3939 42.0873 55.0599 41.6169 60.3792 41.2405C63.0855 41.0524 65.5118 40.9583 68.1248 40.9583L66.0717 38.4179C65.0452 37.1007 62.8989 34.4663 60.6592 31.7377C58.4195 28.9151 55.9931 25.9984 54.4067 23.9285C54.4067 23.364 54.4067 22.9876 54.4067 22.7054C54.4067 20.3532 54.0334 18.001 53.1935 15.837C52.7269 14.6139 52.2603 13.4848 51.6071 12.4499C51.7937 11.9794 51.9804 11.6031 52.167 11.0386C52.5403 9.43909 52.447 7.65141 51.7937 6.05193C51.2338 4.54653 50.2073 3.22931 48.9008 2.19435C47.1277 0.877131 45.168 0.312611 43.2083 0.406701C41.4352 0.500781 39.6621 1.15939 38.0756 2.19435C37.609 2.10027 37.1424 2.00618 36.5825 1.91209C35.3693 1.72392 34.0629 1.62983 32.6631 1.62983C31.3566 1.62983 29.9568 1.62983 28.4636 1.818C27.7171 1.91209 26.9705 2.00618 26.224 2.19435C24.9175 1.06531 23.5177 0.406701 22.0245 0.124436C19.8782 -0.251913 17.8251 0.218521 15.8654 1.62983C15.5854 1.818 15.3055 2.10027 15.1188 2.28844C13.9057 3.41749 13.1591 4.73471 12.5992 6.05193C12.0393 7.65141 11.9459 9.25089 12.0393 10.5681C12.2259 11.6972 12.5059 12.638 12.9725 13.4848C12.5992 14.3316 12.3192 15.1784 12.0393 16.1193C11.2927 18.5655 10.9194 21.2 10.9194 22.7054C10.9194 23.9285 10.9194 24.5871 11.0127 25.0575C9.9862 26.4689 8.77304 28.2565 7.55988 30.1383C5.22687 33.6195 2.70722 37.6652 0.467529 41.2405C7.93316 41.2405 14.8389 41.4287 21.7446 44.5336C25.0108 45.9449 27.8104 47.7326 30.2367 49.7084Z" fill="#F19137"/>
<path d="M29.0237 15.3662C29.677 15.3662 30.2369 14.8017 30.2369 14.1431C30.2369 13.4845 29.677 12.9199 29.0237 12.9199C28.3705 12.9199 27.8106 13.4845 27.8106 14.1431C27.8106 14.8017 28.3705 15.3662 29.0237 15.3662Z" fill="#331F15"/>
<path d="M36.6761 15.3662C37.3293 15.3662 37.8892 14.8017 37.8892 14.1431C37.8892 13.4845 37.3293 12.9199 36.6761 12.9199C36.0228 12.9199 35.4629 13.4845 35.4629 14.1431C35.4629 14.8017 36.0228 15.3662 36.6761 15.3662Z" fill="#331F15"/>
<path d="M36.8628 19.0358C36.4895 18.9418 36.1162 18.7536 35.8363 18.5654C35.0897 18.095 34.4365 17.5304 33.8765 16.8718C33.6899 16.8718 33.5033 16.8718 33.3166 16.8718C32.85 16.8718 32.2901 16.8718 31.8235 16.9659C31.5435 17.3423 31.2636 17.7186 30.9836 18.0009C30.7036 18.2831 30.3304 18.4713 30.0504 18.6595C29.6771 18.8477 29.3972 19.0358 29.0239 19.1299C28.2773 19.4122 27.4374 19.5063 26.5042 19.5063C26.3176 19.5063 26.1309 19.5063 25.9443 19.5063C23.6113 21.388 22.1182 24.2106 22.1182 27.2214C22.1182 32.9607 27.1575 42.934 33.4099 42.934C39.6624 42.934 44.7017 32.9607 44.7017 27.2214C44.7017 24.1165 43.2086 21.2939 40.7822 19.4122C40.409 19.5063 39.9424 19.5063 39.4758 19.5063C38.5426 19.3181 37.6093 19.224 36.8628 19.0358ZM26.7842 23.7402C26.7842 20.4471 29.7704 19.0358 33.13 19.0358C36.4895 19.0358 39.0092 20.4471 39.0092 23.7402C39.0092 27.0333 36.1162 30.7967 33.0367 30.8908C30.0504 30.9849 26.7842 27.0333 26.7842 23.7402Z" fill="white"/>
<path d="M36.5827 32.0202C35.2762 32.867 33.5964 33.3374 31.8233 32.9611C31.2634 32.867 30.6102 32.6788 30.0502 32.3965L28.8371 31.832L27.8106 34.1842L29.0237 34.7487C29.8636 35.1251 30.6102 35.3132 31.3567 35.5014C33.8764 35.9718 36.1161 35.4073 37.9825 34.1842C39.7556 33.0551 41.1554 31.3616 41.9019 29.668C42.1819 29.1035 42.3685 28.539 42.4619 27.9744L42.7418 26.6572L40.2222 26.1868L39.9422 27.504C39.8489 27.8803 39.7556 28.2567 39.5689 28.633C39.009 29.8562 37.9825 31.1734 36.5827 32.0202Z" fill="#331F15"/>
<path d="M33.1294 30.9849C36.1157 30.8908 39.1019 27.0332 39.1019 23.8343C39.1019 20.5412 36.5823 19.1299 33.2227 19.1299C29.8632 19.1299 26.877 20.5412 26.877 23.8343C26.7836 27.0332 30.0499 30.9849 33.1294 30.9849Z" fill="#331F15"/>
<path d="M33.6896 20.2591C33.3163 20.165 32.9431 20.165 32.4765 20.165C30.1434 20.165 27.9971 21.2 27.9971 23.4581C27.9971 24.2108 28.277 24.9635 28.6503 25.7162C29.0236 22.3291 31.0767 20.3532 33.6896 20.2591Z" fill="white"/>
<path d="M20.1578 10.9443C20.0645 11.6029 20.0645 12.5438 20.1578 13.4846C20.2511 14.5196 20.4378 15.5546 20.6244 16.1191C20.9044 16.8718 21.371 17.4363 21.9309 17.9067C22.4908 18.3772 23.1441 18.7535 23.8906 18.9417C24.4506 19.1299 25.1971 19.224 25.9437 19.224C26.1303 19.224 26.317 19.224 26.5036 19.224C27.4368 19.224 28.37 19.1299 29.0233 18.8476C29.3965 18.7535 29.6765 18.5654 30.0498 18.3772C30.4231 18.189 30.703 18.0008 30.983 17.7186C31.2629 17.4363 31.5429 17.154 31.8229 16.6836C32.1028 16.3073 32.3828 15.7427 32.6627 15.1782C32.7561 15.0841 32.7561 14.896 32.8494 14.8019C32.9427 15.0841 33.1293 15.3664 33.316 15.6487C33.5026 15.9309 33.6893 16.3073 33.9692 16.5895C34.5291 17.2481 35.1824 17.9067 35.929 18.2831C36.3022 18.4713 36.5822 18.6594 36.9555 18.7535C37.702 19.0358 38.5419 19.1299 39.4751 19.1299C39.9417 19.1299 40.315 19.1299 40.7816 19.0358C41.2482 18.9417 41.7148 18.8476 42.0881 18.7535C43.5812 18.2831 44.7011 17.3422 45.3543 15.8368C45.5409 15.4605 45.6343 14.99 45.8209 14.4255C46.0076 13.5787 46.1009 12.7319 46.0075 11.7911C46.0075 11.5088 45.9142 11.2266 45.9142 10.9443C46.0076 11.0384 46.1942 11.0384 46.2875 11.1325L47.4074 8.49801C46.0075 7.8394 43.7679 7.36897 41.4349 7.18079C39.1952 6.99262 36.9555 6.99262 35.5557 7.46306C35.2757 7.55714 34.9024 7.65123 34.5291 7.8394C34.4358 7.93349 34.2492 7.93349 34.1559 8.02758C33.9692 8.12167 33.7826 8.21575 33.5959 8.21575H33.5026C33.2227 8.30984 32.9427 8.40393 32.4761 8.21575C30.1431 7.46306 28.5566 7.08671 25.8504 7.08671C23.5173 7.08671 21.1843 7.36897 19.2246 7.93349L19.9712 10.7561C19.9712 10.9443 20.0645 10.9443 20.1578 10.9443ZM35.2757 10.8502C37.0488 10.0975 39.1952 10.1916 41.0616 10.3798C41.3415 10.3798 42.5547 10.4739 43.2079 10.7561C43.4879 10.8502 43.5812 11.0384 43.6745 11.2266C43.6745 11.3206 43.6745 11.3206 43.7679 11.4147C43.7679 11.5088 43.7679 11.6029 43.8612 11.697C43.8612 11.8852 43.8612 11.9793 43.9545 12.1674C44.0478 12.826 43.9545 13.4846 43.7679 14.2373C43.6745 14.6137 43.5812 14.99 43.4879 15.1782C43.3013 15.6487 43.0213 16.025 42.7413 16.3073C42.4614 16.5895 41.9948 16.7777 41.5282 16.9659C40.9683 17.154 40.315 17.2481 39.5684 17.2481C38.9152 17.2481 38.1686 17.154 37.702 16.9659C37.4221 16.8718 37.2354 16.7777 37.0488 16.6836C36.3022 16.2132 35.649 15.5546 35.2757 14.8019C34.9024 14.1433 34.6225 13.3906 34.5291 12.3556C34.2492 11.6029 34.5291 11.2266 35.2757 10.8502ZM22.2109 11.6029C22.2109 10.4739 22.4908 10.4739 23.5173 10.2857C24.3572 10.1916 25.1971 10.1916 25.757 10.1916C27.6234 10.1916 29.3965 10.4739 30.8897 10.9443C31.0763 11.0384 31.3563 11.1325 31.5429 11.2266C31.5429 11.4147 31.5429 11.6029 31.5429 11.8852C31.4496 12.826 31.1696 13.7669 30.7963 14.5196C30.4231 15.2723 30.0498 15.9309 29.5832 16.3073C29.2099 16.6836 28.7433 16.8718 28.2767 17.06C27.8101 17.2481 27.0635 17.3422 26.4103 17.3422C25.6637 17.3422 24.9172 17.2481 24.4506 17.06C23.984 16.8718 23.6107 16.6836 23.2374 16.4013C22.9574 16.1191 22.6775 15.7427 22.4908 15.2723C22.3975 15.0841 22.3042 14.7078 22.3042 14.3314C22.2109 13.6728 22.1175 12.5438 22.2109 11.6029Z" fill="#331F15"/>
</svg>
